# xmcd
#
# Track frame offsets: 
#        150
#        12662
#        28837
#        43677
#        56052
#        68432
#        81825
#        95387
#        110387
#        126097
#        141212
#        155462
#        168135
#        183702
#        197650
#        214062
#        229062
#        243775
#        258000
#        273762
#        286537
#        300187
#
# Disc length: 4224 seconds
#
# Revision: 2
# Processed by: cddbd v1.5.2PL0 Copyright (c) Steve Scherf et al.
# Submitted via: ExactAudioCopy v1.0b1
#
DISCID=20107e16
DTITLE=Tampa Red - The Bluebird Recordings:  1934 - 1936 [CD2]
DYEAR=1997
DGENRE=Blues
TTITLE0=Mean Old Tom Cat Blues (alt) (mono)
TTITLE1=Don't Dog Your Woman (mono)
TTITLE2=Singing And Crying Blues (mono)
TTITLE3=Shake It Up A Little (mono)
TTITLE4=Shake It Up A Little (alt) (mono)
TTITLE5=My Baby Said Yes (mono)
TTITLE6=I'm Betting On You (mono)
TTITLE7=Rowdy Woman Blues (mono)
TTITLE8=Keep On Dealin' (Play Your Hand) (mono)
TTITLE9=(I Could Learn To Love You ) So Good (mono)
TTITLE10=When I Take My Vacation In Harlem (mono)
TTITLE11=Drinkin' My Blues Away (mono)
TTITLE12=Dark And Stormy Night (mono)
TTITLE13=Good Woman Blues (mono)
TTITLE14=You Missed A Good Man (mono)
TTITLE15=Waiting Blues (mono)
TTITLE16=When You Were A Gal Of Seven (mono)
TTITLE17=Let's Get Drunk And Truck (mono)
TTITLE18=Maybe It's Someone Else You Love (mono)
TTITLE19=I Wonder What's The Matter (mono)
TTITLE20=She Don't Know My Mind - Part 1 (mono)
TTITLE21=She Don't Know My Mind - Part 2 (mono)
EXTD=Submitted 7/10/97\n[Jmccoy@efn.org]
EXTT0=
EXTT1=
EXTT2=
EXTT3=
EXTT4=
EXTT5=
EXTT6=
EXTT7=
EXTT8=
EXTT9=
EXTT10=
EXTT11=
EXTT12=
EXTT13=
EXTT14=
EXTT15=
EXTT16=
EXTT17=
EXTT18=
EXTT19=
EXTT20=
EXTT21=
PLAYORDER=
